<svg width="16" height="16" viewBox="0 0 16 16" fill="none" xmlns="http://www.w3.org/2000/svg">
<path d="M5.87791 0.36817C7.65528 -0.164215 9.56807 -0.118092 11.3149 0.499225C12.9137 1.06423 14.2905 2.07837 15.2662 3.40235C15.423 3.61504 15.3439 3.88629 15.0965 4.03273L14.0653 4.64327C13.7596 4.82425 13.3274 4.74226 13.1183 4.48712C12.4372 3.65565 11.5245 3.01691 10.4788 2.64737C9.23224 2.20686 7.8673 2.17391 6.59896 2.55382C5.33062 2.93374 4.23085 3.7049 3.47299 4.74581C2.71514 5.78675 2.34212 7.03842 2.4128 8.30353C2.48348 9.56864 2.99383 10.7754 3.86338 11.7338C4.73292 12.6922 5.91235 13.3477 7.21585 13.5972C8.51937 13.8466 9.87302 13.6758 11.0635 13.1116C11.7018 12.8092 12.2735 12.4026 12.7558 11.9149L7.03985 11.918C6.69736 11.9182 6.41952 11.6945 6.41934 11.4184L6.41897 10.8059C6.4188 10.5298 6.69628 10.3057 7.03876 10.3055L15.3791 10.301C15.7216 10.3008 15.9995 10.5246 15.9996 10.8007L16 11.4132C16.0001 11.5687 15.9121 11.7077 15.774 11.7994C15.7652 11.8261 15.7537 11.8526 15.7386 11.8784C14.9159 13.2928 13.6602 14.4398 12.1341 15.163C10.4659 15.9536 8.56914 16.193 6.74249 15.8434C4.91586 15.4938 3.26311 14.5752 2.04458 13.2323C0.826052 11.8893 0.110924 10.1981 0.0118765 8.42531C-0.0871686 6.65249 0.435478 4.89863 1.49746 3.43995C2.55946 1.98127 4.10054 0.900566 5.87791 0.36817Z" fill="#4E72FF"/>
<path d="M7.51948 4.82776C7.5374 4.55199 7.82921 4.34016 8.17124 4.35461L8.83731 4.38275C9.17934 4.3972 9.44208 4.63247 9.42416 4.90824L8.93713 12.4007C8.91921 12.6765 8.6274 12.8883 8.28537 12.8739L7.6193 12.8457C7.27727 12.8313 7.01453 12.596 7.03246 12.3202L7.51948 4.82776Z" fill="#4E72FF"/>
</svg>
